<?xml version="1.0" standalone="no"?>
<!DOCTYPE svg PUBLIC "-//W3C//DTD SVG 20010904//EN"
 "http://www.w3.org/TR/2001/REC-SVG-20010904/DTD/svg10.dtd">
<svg version="1.0" xmlns="http://www.w3.org/2000/svg"
 width="260.000000pt" height="260.000000pt" viewBox="0 0 260.000000 260.000000"
 preserveAspectRatio="xMidYMid meet">
<metadata>
Created by potrace 1.14, written by Peter Selinger 2001-2017
</metadata>
<g transform="translate(0.000000,260.000000) scale(0.100000,-0.100000)"
fill="#000000" stroke="none">
<path d="M1539 2564 c-70 -37 -79 -86 -33 -194 37 -88 37 -153 0 -246 l-29
-71 -41 9 c-50 12 -197 14 -251 4 l-41 -7 -23 48 c-13 27 -26 74 -28 108 -4
50 0 73 26 140 34 88 38 130 16 162 -36 52 -157 55 -245 7 -57 -31 -90 -76
-90 -124 0 -34 12 -48 120 -140 60 -50 85 -99 95 -181 l7 -57 -71 -42 c-39
-22 -100 -68 -135 -101 -35 -32 -68 -59 -73 -59 -21 0 -132 112 -142 143 -6
17 -15 67 -21 110 -12 95 -26 127 -63 145 -38 18 -83 9 -140 -29 -84 -55 -133
-157 -106 -220 15 -37 45 -51 144 -69 95 -17 137 -41 186 -103 77 -97 75 -84
34 -186 -19 -50 -37 -104 -38 -122 l-2 -31 -95 4 c-108 4 -117 9 -227 110 -51
47 -69 58 -97 58 -116 0 -173 -252 -75 -334 43 -37 76 -33 179 21 72 38 99 47
137 46 50 -1 173 -31 171 -42 -8 -29 18 -173 41 -231 l28 -69 -36 -24 c-106
-70 -160 -80 -276 -52 -85 20 -120 19 -150 -8 -57 -49 -37 -184 38 -263 86
-91 142 -76 221 56 30 50 65 94 85 107 31 21 151 63 179 63 7 0 28 -21 47 -48
20 -26 60 -65 89 -87 l52 -40 -37 -76 c-43 -87 -74 -117 -155 -148 -147 -57
-164 -69 -164 -124 0 -39 22 -77 69 -120 51 -46 101 -67 158 -67 91 0 107 27
108 175 0 126 11 153 92 242 l48 52 85 -29 c47 -16 101 -30 120 -30 27 0 36
-4 36 -17 0 -10 6 -48 13 -86 19 -98 9 -141 -55 -236 -64 -95 -74 -130 -49
-167 22 -34 114 -74 168 -74 61 1 146 46 169 91 23 45 15 71 -46 149 -66 85
-76 110 -75 192 0 40 3 91 7 112 l7 39 80 17 c44 9 106 28 137 42 l57 27 42
-47 c71 -81 79 -105 79 -242 0 -115 1 -122 25 -145 83 -83 326 66 300 184 -9
42 -40 65 -132 101 -45 17 -92 40 -106 50 -13 11 -43 56 -67 101 l-42 81 64
66 c35 37 75 88 88 115 28 53 33 54 136 16 62 -24 101 -64 150 -157 47 -91 65
-107 116 -107 36 0 46 6 89 53 87 95 103 210 38 271 -26 24 -67 26 -174 7 -89
-16 -131 -7 -215 47 -36 22 -66 41 -67 41 0 1 8 37 19 81 11 46 18 102 16 133
-3 52 -3 52 32 62 50 14 125 12 164 -4 19 -8 64 -35 102 -60 101 -67 152 -60
194 26 54 112 -10 288 -104 288 -34 0 -54 -11 -145 -82 -70 -53 -114 -64 -216
-53 -44 4 -65 11 -65 20 0 22 -57 155 -85 196 l-26 40 30 43 c42 61 95 109
137 123 19 7 68 15 109 19 83 7 130 30 145 70 19 50 -17 132 -86 193 -105 92
-201 72 -224 -48 -31 -154 -47 -183 -137 -246 -62 -43 -66 -45 -87 -30 -20 15
-127 88 -159 110 -13 8 -13 22 -6 84 13 101 36 150 95 196 103 82 124 106 124
146 0 50 -29 83 -104 119 -70 33 -141 39 -187 14z"/>
</g>
</svg>
